<svg viewBox="0 0 208.44 202.733" xmlns="http://www.w3.org/2000/svg"><path d="m30.232 101.251q0 7.206-3.97 11.106t-11.153 3.9h-9.309v-28.79h9.963q6.932 0 10.7 3.544t3.769 10.24zm-8.075.275q0-3.957-1.566-5.868a5.788 5.788 0 0 0 -4.754-1.91h-2.265v16.128h1.733q3.543 0 5.2-2.058t1.652-6.292z" fill="#1d1e1b"/><path d="m33.375 116.256v-28.789h7.817v28.789z" fill="#1d1e1b"/><path d="m56.955 99.4h12.426v15.517a34.165 34.165 0 0 1 -11.125 1.732q-6.657 0-10.29-3.859t-3.633-11.008q0-6.97 3.977-10.85t11.146-3.879a24.681 24.681 0 0 1 5.129.513 21.688 21.688 0 0 1 4.2 1.3l-2.457 6.104a15.221 15.221 0 0 0 -6.834-1.537 6.489 6.489 0 0 0 -5.265 2.216 9.58 9.58 0 0 0 -1.862 6.331 9.711 9.711 0 0 0 1.683 6.153 5.84 5.84 0 0 0 4.855 2.117 14.284 14.284 0 0 0 3.191-.335v-4.51h-5.141z" fill="#1d1e1b"/><path d="m73.235 116.256v-28.789h7.817v28.789z" fill="#1d1e1b"/><path d="m97.958 116.256h-7.779v-22.429h-7.029v-6.36h21.818v6.36h-7.01z" fill="#1d1e1b"/><path d="m134.006 101.822q0 7.264-3.565 11.047t-10.436 3.78q-6.774 0-10.387-3.8t-3.618-11.067q0-7.186 3.595-10.977t10.445-3.791q6.873 0 10.416 3.761t3.55 11.047zm-19.81 0q0 8.349 5.809 8.35a4.991 4.991 0 0 0 4.38-2.029q1.429-2.028 1.43-6.321 0-4.314-1.449-6.37a4.937 4.937 0 0 0 -4.322-2.058q-5.844 0-5.844 8.428z" fill="#1d1e1b"/><path d="m164.6 116.256h-10.2l-10.519-20.283h-.181q.377 4.785.375 7.305v12.978h-6.891v-28.789h10.158l10.479 20.006h.117q-.276-4.352-.275-6.99v-13.016h6.937z" fill="#1d1e1b"/><path d="m168.8 116.256v-28.789h7.817v28.789z" fill="#1d1e1b"/><path d="m193.646 93.433a4.964 4.964 0 0 0 -4.332 2.274 11 11 0 0 0 -1.554 6.273q0 8.31 6.321 8.309a12.941 12.941 0 0 0 3.7-.532 36.658 36.658 0 0 0 3.6-1.28v6.578a19.949 19.949 0 0 1 -8.151 1.594q-6.519 0-9.993-3.78t-3.476-10.93a17.443 17.443 0 0 1 1.683-7.856 12.055 12.055 0 0 1 4.845-5.208 14.627 14.627 0 0 1 7.433-1.822 20.478 20.478 0 0 1 8.92 2.028l-2.382 6.125a26.76 26.76 0 0 0 -3.189-1.26 11.172 11.172 0 0 0 -3.425-.513z" fill="#1d1e1b"/><path d="m5.795 178.611h125.524v19.808h-125.524z" fill="#ed1b8c"/><g fill="#1d1e1b"><path d="m14.405 176.925-3.581-11.669h-.092q.194 3.561.193 4.751v6.918h-2.818v-14.874h4.293l3.52 11.374h.061l3.734-11.374h4.293v14.874h-2.94v-7.04c0-.332.005-.716.015-1.15s.056-1.587.137-3.459h-.09l-3.836 11.649z"/><path d="m41.253 169.468a8.067 8.067 0 0 1 -1.831 5.676 6.788 6.788 0 0 1 -5.25 1.984 6.788 6.788 0 0 1 -5.249-1.984 8.1 8.1 0 0 1 -1.831-5.7 8 8 0 0 1 1.836-5.672 6.869 6.869 0 0 1 5.265-1.958 6.77 6.77 0 0 1 5.244 1.974 8.09 8.09 0 0 1 1.816 5.68zm-10.855 0a6.213 6.213 0 0 0 .946 3.754 3.311 3.311 0 0 0 2.828 1.261q3.776 0 3.775-5.015t-3.754-5.026a3.333 3.333 0 0 0 -2.839 1.267 6.189 6.189 0 0 0 -.954 3.759z"/><path d="m44.336 162.051h4.629a8.927 8.927 0 0 1 4.594.9 3.137 3.137 0 0 1 1.429 2.864 3.611 3.611 0 0 1 -.626 2.185 2.5 2.5 0 0 1 -1.662 1.03v.1a3.277 3.277 0 0 1 2.04 1.18 3.841 3.841 0 0 1 .625 2.3 3.79 3.79 0 0 1 -1.47 3.175 6.361 6.361 0 0 1 -3.993 1.139h-5.566zm3.154 5.89h1.831a3.353 3.353 0 0 0 1.857-.4 1.482 1.482 0 0 0 .575-1.313 1.315 1.315 0 0 0 -.626-1.226 4.029 4.029 0 0 0 -1.979-.371h-1.658zm0 2.5v3.877h2.055a3.052 3.052 0 0 0 1.923-.5 1.839 1.839 0 0 0 .62-1.526q0-1.852-2.645-1.852z"/><path d="m58.335 176.925v-14.874h3.154v14.874z"/><path d="m65.233 176.925v-14.874h3.154v12.27h6.033v2.6z"/><path d="m85.57 176.925h-8.57v-14.874h8.57v2.584h-5.412v3.265h5.036v2.584h-5.036v3.836h5.412z"/><path d="m135.626 178.611a2.544 2.544 0 0 1 1.311.354 2.645 2.645 0 0 1 .957.957 2.6 2.6 0 0 1 0 2.623 2.645 2.645 0 0 1 -.957.957 2.606 2.606 0 0 1 -2.623 0 2.66 2.66 0 0 1 -.957-.957 2.606 2.606 0 0 1 0-2.623 2.66 2.66 0 0 1 .957-.957 2.545 2.545 0 0 1 1.312-.354zm0 4.738a2.053 2.053 0 0 0 1.057-.286 2.125 2.125 0 0 0 .772-.772 2.1 2.1 0 0 0 0-2.115 2.125 2.125 0 0 0 -.772-.772 2.1 2.1 0 0 0 -2.115 0 2.14 2.14 0 0 0 -.772.772 2.1 2.1 0 0 0 0 2.115 2.14 2.14 0 0 0 .772.772 2.059 2.059 0 0 0 1.058.286zm1.163-.868a.112.112 0 0 1 .005.127.118.118 0 0 1 -.111.064h-.454a.108.108 0 0 1 -.106-.064l-.508-.952h-.338v.889a.122.122 0 0 1 -.037.09.126.126 0 0 1 -.09.037h-.413a.131.131 0 0 1 -.084-.037.117.117 0 0 1 -.042-.09v-2.623a.117.117 0 0 1 .042-.09.131.131 0 0 1 .084-.037h.836a1.206 1.206 0 0 1 .814.233.838.838 0 0 1 .265.666.915.915 0 0 1 -.117.46.779.779 0 0 1 -.306.312l.264.465q.17.318.296.55zm-1.153-1.417a.332.332 0 0 0 .254-.09.361.361 0 0 0 .085-.259.323.323 0 0 0 -.085-.248.49.49 0 0 0 -.328-.08h-.285v.677z"/><path d="m16.887 155.9a3.846 3.846 0 0 1 -1.45 3.175 6.3 6.3 0 0 1 -4.033 1.159 9.473 9.473 0 0 1 -4.212-.9v-2.93a17.27 17.27 0 0 0 2.548.946 7.547 7.547 0 0 0 1.908.275 2.708 2.708 0 0 0 1.592-.4 1.355 1.355 0 0 0 .554-1.18 1.3 1.3 0 0 0 -.244-.778 2.759 2.759 0 0 0 -.717-.657 18.621 18.621 0 0 0 -1.928-1.007 9.115 9.115 0 0 1 -2.045-1.231 4.618 4.618 0 0 1 -1.088-1.373 3.915 3.915 0 0 1 -.407-1.832 3.844 3.844 0 0 1 1.337-3.1 5.56 5.56 0 0 1 3.7-1.13 8.747 8.747 0 0 1 2.213.275 15.251 15.251 0 0 1 2.2.773l-1.015 2.456a14.867 14.867 0 0 0 -1.969-.682 6.378 6.378 0 0 0 -1.531-.193 2.03 2.03 0 0 0 -1.374.417 1.378 1.378 0 0 0 -.478 1.089 1.345 1.345 0 0 0 .194.727 2.126 2.126 0 0 0 .615.6 19.138 19.138 0 0 0 2 1.042 7.951 7.951 0 0 1 2.859 2 3.908 3.908 0 0 1 .771 2.459z"/><path d="m25.881 160.029-3.581-11.67h-.092q.194 3.563.193 4.752v6.918h-2.818v-14.874h4.294l3.52 11.374h.061l3.734-11.374h4.293v14.874h-2.94v-7.04q0-.5.015-1.15t.137-3.459h-.091l-3.836 11.649z"/><path d="m48.334 160.029-1.078-3.541h-5.423l-1.078 3.541h-3.4l5.25-14.935h3.855l5.27 14.935zm-1.834-6.186q-1.5-4.812-1.684-5.443t-.269-1q-.336 1.3-1.923 6.44z"/><path d="m56.758 154.322v5.707h-3.158v-14.874h4.334a7.417 7.417 0 0 1 4.487 1.1 4.4 4.4 0 0 1 .733 5.687 4.794 4.794 0 0 1 -2.045 1.6q3.357 5.016 4.374 6.481h-3.5l-3.551-5.707zm0-2.564h1.018a3.884 3.884 0 0 0 2.207-.5 1.778 1.778 0 0 0 .712-1.567 1.626 1.626 0 0 0 -.727-1.5 4.407 4.407 0 0 0 -2.253-.448h-.957z"/><path d="m73.1 160.029h-3.157v-12.249h-4.043v-2.625h11.236v2.625h-4.036z"/></g><path d="m14.405 195.867-3.581-11.667h-.092q.194 3.561.193 4.751v6.919h-2.818v-14.877h4.293l3.52 11.374h.061l3.734-11.374h4.293v14.874h-2.94v-7.041q0-.5.015-1.149t.137-3.459h-.09l-3.836 11.649z" fill="#fff"/><path d="m36.858 195.867-1.078-3.541h-5.423l-1.078 3.541h-3.4l5.25-14.936h3.855l5.27 14.936zm-1.831-6.186q-1.5-4.812-1.684-5.443t-.269-1q-.336 1.3-1.923 6.44z" fill="#fff"/><path d="m45.282 190.159v5.708h-3.154v-14.874h4.334a7.424 7.424 0 0 1 4.487 1.1 4.4 4.4 0 0 1 .733 5.688 4.794 4.794 0 0 1 -2.045 1.6q3.357 5.016 4.374 6.481h-3.5l-3.551-5.708zm0-2.564h1.018a3.893 3.893 0 0 0 2.207-.5 1.779 1.779 0 0 0 .712-1.567 1.629 1.629 0 0 0 -.727-1.506 4.419 4.419 0 0 0 -2.253-.447h-.957z" fill="#fff"/><path d="m67.848 195.867h-3.582l-3.9-6.267-1.333.956v5.311h-3.15v-14.874h3.154v6.807l1.241-1.75 4.029-5.056h3.5l-5.189 6.582z" fill="#fff"/><path d="m78.286 195.867h-8.566v-14.874h8.566v2.584h-5.413v3.265h5.037v2.585h-5.037v3.835h5.413z" fill="#fff"/><path d="m87.127 195.867h-3.154v-12.25h-4.039v-2.624h11.232v2.624h-4.039z" fill="#fff"/><path d="m93.455 195.867v-14.874h3.154v14.874z" fill="#fff"/><path d="m113.548 195.867h-4.008l-6.471-11.253h-.092q.193 2.982.194 4.253v7h-2.818v-14.874h3.978l6.46 11.14h.071q-.151-2.9-.152-4.1v-7.04h2.838z" fill="#fff"/><path d="m122.939 187.514h5.9v7.711a16.569 16.569 0 0 1 -2.7.657 17.65 17.65 0 0 1 -2.589.188 6.553 6.553 0 0 1 -5.143-1.979 8.234 8.234 0 0 1 -1.775-5.682 7.492 7.492 0 0 1 2.06-5.616 7.823 7.823 0 0 1 5.713-2.014 11.047 11.047 0 0 1 4.415.916l-1.048 2.523a7.477 7.477 0 0 0 -3.388-.814 4.187 4.187 0 0 0 -3.276 1.373 5.332 5.332 0 0 0 -1.231 3.693 5.933 5.933 0 0 0 .992 3.7 3.43 3.43 0 0 0 2.885 1.277 10.185 10.185 0 0 0 2-.2v-3.1h-2.818z" fill="#fff"/><path d="m123.4 14.977a28.2 28.2 0 0 0 -39.75 0l-66.258 66.259h172.267z" fill="none"/><path d="m83.649 14.977a28.2 28.2 0 0 1 39.75 0l66.26 66.259h3.457c-6.076-6.074-67.989-67.987-67.989-67.987a30.586 30.586 0 0 0 -43.206 0l-67.985 67.987h3.456z" fill="#ed1b8c"/><path d="m193.116 122.32h-3.457l-50.382 50.38h3.456c18.797-18.795 46.426-46.425 50.383-50.38z" fill="#ed1b8c"/><path d="m17.392 122.32h-3.456l16.788 16.788h3.456z" fill="#ed1b8c"/></svg>